# xmcd CD database file
#
# Track frame offsets:
#	150
#	13798
#	30666
#	46360
#	70160
#	89919
#	117220
#	134776
#	151281
#	171213
#	182721
#	196676
#	223562
#	236725
#	256833
#	274882
#	286911
#	295389
#	315106
#	329494
#	343539
#
# Disc length: 4744 seconds
#
# Revision: 0
# Processed by: cddbd v1.5.2PL0 Copyright (c) Steve Scherf et al.
# Submitted via: CDex 1.70beta2
#
DISCID=3e128615
DTITLE=Just In Time - Unplugged Set List Spring 2007
DYEAR=2007
DGENRE=Jazz
TTITLE0=Choo Choo Cha Boogie
TTITLE1=I've Got You Under My Skin
TTITLE2=Just In Time
TTITLE3=My Funny Valentine
TTITLE4=Shoo Be Do Be
TTITLE5=Proud Mary
TTITLE6=Sir Duke
TTITLE7=And So It Goes
TTITLE8=At Last
TTITLE9=I Got The Sun in the Morning
TTITLE10=My Favorite Things
TTITLE11=Birdland
TTITLE12=Come Hold Me
TTITLE13=Do Nothin Till You Hear From Me
TTITLE14=I Got Rhythm
TTITLE15=I Wandered Around
TTITLE16=Never Say Goodbye
TTITLE17=South of the Border
TTITLE18=Stormy Weather
TTITLE19=Sway
TTITLE20=A Quiet Place
EXTD=YEAR: 2007
EXTT0=
EXTT1=
EXTT2=
EXTT3=
EXTT4=
EXTT5=
EXTT6=
EXTT7=
EXTT8=
EXTT9=
EXTT10=
EXTT11=
EXTT12=
EXTT13=
EXTT14=
EXTT15=
EXTT16=
EXTT17=
EXTT18=
EXTT19=
EXTT20=
PLAYORDER=
